<svg xmlns="http://www.w3.org/2000/svg" version="1.1" xmlns:xlink="http://www.w3.org/1999/xlink" xmlns:svgjs="http://svgjs.dev/svgjs" width="2000" height="1500" viewBox="0 0 2000 1500"><rect width="2000" height="1500" fill="#ba3b0a"></rect><g transform="matrix(0.75,0,0,0.75,249.090909090909,282.7536437246963)"><svg viewBox="0 0 396 247" data-background-color="#ba3b0a" preserveAspectRatio="xMidYMid meet" height="1247" width="2000" xmlns="http://www.w3.org/2000/svg" xmlns:xlink="http://www.w3.org/1999/xlink"><g id="tight-bounds" transform="matrix(1,0,0,1,0.2400000000000091,-0.09999999999999432)"><svg viewBox="0 0 395.52 247.2" height="247.2" width="395.52"><g><svg></svg></g><g><svg viewBox="0 0 395.52 247.2" height="247.2" width="395.52"><g transform="matrix(1,0,0,1,75.54432000000001,78.67317279839517)"><svg viewBox="0 0 244.43135999999996 89.85365440320963" height="89.85365440320963" width="244.43135999999996"><g><svg viewBox="0 0 244.43135999999996 89.85365440320963" height="89.85365440320963" width="244.43135999999996"><g><svg viewBox="0 0 244.43135999999996 89.85365440320963" height="89.85365440320963" width="244.43135999999996"><g><svg viewBox="0 0 244.43135999999996 89.85365440320963" height="89.85365440320963" width="244.43135999999996"><g id="textblocktransform"><svg viewBox="0 0 244.43135999999996 89.85365440320963" height="89.85365440320963" width="244.43135999999996" id="textblock"><g><svg viewBox="0 0 244.43135999999996 89.85365440320963" height="89.85365440320963" width="244.43135999999996"><g transform="matrix(1,0,0,1,0,0)"><svg width="244.43135999999996" viewBox="0.35 -36.3 99.69000000000001 36.65" height="89.85365440320963" data-palette-color="#ffa96a"><path d="M10.15 0.3L10.15 0.3Q6.8 0.3 4.63-0.85 2.45-2 1.4-3.8 0.35-5.6 0.35-7.5L0.35-7.5Q0.35-9.35 1.25-11.03 2.15-12.7 3.83-13.8 5.5-14.9 7.8-14.9L7.8-14.9Q7.75-14.45 7.75-14.08 7.75-13.7 7.75-13.7L7.75-13.7Q7.75-10.35 8.4-8.43 9.05-6.5 10.05-5.68 11.05-4.85 12.1-4.85L12.1-4.85Q13.7-4.85 14.95-6.13 16.2-7.4 16.2-9.1L16.2-9.1Q16.2-11 14.58-12.45 12.95-13.9 10.45-15.65L10.45-15.65Q9.05-16.7 7.48-18.03 5.9-19.35 4.8-21.18 3.7-23 3.7-25.5L3.7-25.5Q3.7-28.1 4.93-30.1 6.15-32.1 8.18-33.48 10.2-34.85 12.63-35.58 15.05-36.3 17.45-36.3L17.45-36.3Q20.4-36.3 22.3-35.35 24.2-34.4 25.15-32.9 26.1-31.4 26.1-29.8L26.1-29.8Q26.1-28.3 25.28-26.93 24.45-25.55 22.85-24.7 21.25-23.85 18.9-23.85L18.9-23.85Q19.05-24.55 19.1-25.13 19.15-25.7 19.15-26.15L19.15-26.15Q19.15-28.65 18.07-29.73 17-30.8 15.7-30.8L15.7-30.8Q14.45-30.8 13.3-29.88 12.15-28.95 12.15-26.9L12.15-26.9Q12.15-25.15 13.08-23.9 14-22.65 15.48-21.7 16.95-20.75 18.6-19.85L18.6-19.85Q20.3-18.95 21.88-17.88 23.45-16.8 24.5-15.35 25.55-13.9 25.55-11.7L25.55-11.7Q25.55-9.4 24.3-7.23 23.05-5.05 20.9-3.38 18.75-1.7 15.98-0.7 13.2 0.3 10.15 0.3ZM38.05-26.75L38.05-26.75Q36.05-26.75 34.77-27.98 33.5-29.2 33.5-31.05L33.5-31.05Q33.5-33.05 35-34.5 36.5-35.95 38.65-35.95L38.65-35.95Q40.65-35.95 41.92-34.7 43.2-33.45 43.2-31.6L43.2-31.6Q43.2-29.6 41.7-28.18 40.2-26.75 38.05-26.75ZM34.55 0.2L34.55 0.2Q32.6 0.2 31.05-1.18 29.5-2.55 29.5-5.6L29.5-5.6Q29.5-7.35 29.97-8.88 30.45-10.4 31.07-11.85 31.7-13.3 32.17-14.68 32.65-16.05 32.65-17.4L32.65-17.4Q32.65-18.6 32.25-19.13 31.85-19.65 31.3-19.65L31.3-19.65Q30.45-19.65 29.65-18.55L29.65-18.55 29.3-18.75Q29.5-20.75 30.57-22.18 31.65-23.6 33.22-24.4 34.8-25.2 36.35-25.2L36.35-25.2Q38.25-25.2 39.65-23.98 41.05-22.75 41.05-20L41.05-20Q41.05-18.35 40.57-16.53 40.1-14.7 39.47-12.9 38.85-11.1 38.37-9.55 37.9-8 37.9-6.9L37.9-6.9Q37.9-5.95 38.27-5.55 38.65-5.15 39.1-5.15L39.1-5.15Q39.55-5.15 39.97-5.43 40.4-5.7 40.6-6.05L40.6-6.05 40.95-5.95Q40.95-4.1 39.97-2.73 39-1.35 37.55-0.58 36.1 0.2 34.55 0.2ZM55.8 0.35L55.8 0.35Q52.05 0.35 49.6-1.15 47.15-2.65 45.97-5.13 44.8-7.6 44.8-10.4L44.8-10.4Q44.8-13.05 45.77-15.7 46.75-18.35 48.62-20.53 50.5-22.7 53.2-24.03 55.9-25.35 59.4-25.35L59.4-25.35Q63.15-25.35 65.57-23.83 68-22.3 69.17-19.8 70.34-17.3 70.34-14.45L70.34-14.45Q70.34-11.85 69.4-9.22 68.45-6.6 66.57-4.42 64.7-2.25 62-0.95 59.3 0.35 55.8 0.35ZM57.15-3.9L57.15-3.9Q58.5-3.9 59.4-5.3 60.3-6.7 60.75-8.88 61.2-11.05 61.2-13.3L61.2-13.3Q61.2-15.3 60.82-17.07 60.45-18.85 59.7-19.98 58.95-21.1 57.75-21.1L57.75-21.1Q56.45-21.1 55.52-19.7 54.6-18.3 54.15-16.15 53.7-14 53.7-11.7L53.7-11.7Q53.7-9.7 54.07-7.93 54.45-6.15 55.2-5.03 55.95-3.9 57.15-3.9ZM79.09 0.15L79.09 0.15Q77.24 0.15 75.74-1.33 74.24-2.8 74.24-5.45L74.24-5.45Q74.24-6.75 74.59-8.4 74.94-10.05 75.37-11.75 75.79-13.45 76.14-14.95 76.49-16.45 76.49-17.4L76.49-17.4Q76.49-18.4 76.09-18.98 75.69-19.55 75.04-19.55L75.04-19.55Q74.19-19.55 73.19-18.55L73.19-18.55 72.89-18.75Q72.84-19.55 73.24-20.65 73.64-21.75 74.47-22.78 75.29-23.8 76.59-24.5 77.89-25.2 79.69-25.2L79.69-25.2Q82.34-25.2 83.62-23.68 84.89-22.15 84.89-19.95L84.89-19.95Q84.89-19.15 84.74-18.4L84.74-18.4Q85.79-19.95 87.34-21.53 88.89-23.1 90.77-24.15 92.64-25.2 94.64-25.2L94.64-25.2Q96.99-25.2 97.84-23.7 98.69-22.2 98.69-19.95L98.69-19.95Q98.69-17.85 98.24-15.45 97.79-13.05 97.34-10.83 96.89-8.6 96.89-7.1L96.89-7.1Q96.89-5.1 98.04-5.1L98.04-5.1Q98.64-5.1 99.09-5.48 99.54-5.85 99.69-6.2L99.69-6.2 100.04-6.05Q100.04-4.2 99.02-2.8 97.99-1.4 96.44-0.63 94.89 0.15 93.29 0.15L93.29 0.15Q91.34 0.15 89.84-1.2 88.34-2.55 88.34-5.6L88.34-5.6Q88.34-7.4 88.82-9.5 89.29-11.6 89.74-13.55 90.19-15.5 90.19-16.75L90.19-16.75Q90.19-17.5 89.92-17.93 89.64-18.35 88.94-18.35L88.94-18.35Q87.79-18.35 86.42-17.3 85.04-16.25 84.07-14.5 83.09-12.75 83.09-10.65L83.09-10.65Q83.09-9.3 83.42-8.05 83.74-6.8 83.74-5.35L83.74-5.35Q83.74-2.65 82.34-1.25 80.94 0.15 79.09 0.15Z" opacity="1" transform="matrix(1,0,0,1,0,0)" fill="#ffa96a" class="wordmark-text-0" data-fill-palette-color="primary" id="text-0"></path></svg></g></svg></g></svg></g></svg></g><g></g></svg></g></svg></g></svg></g><g><path d="M94.987 57.461A122.216 122.216 0 0 1 300.533 57.461L292.43 57.461A114.113 114.113 0 0 0 103.09 57.461L94.987 57.461M94.987 189.739A122.216 122.216 0 0 0 300.533 189.739L292.43 189.739A114.113 114.113 0 0 1 103.09 189.739L94.987 189.739" fill="#ffa96a" stroke="transparent" data-fill-palette-color="tertiary"></path></g></svg></g><defs></defs></svg><rect width="395.52" height="247.2" fill="none" stroke="none" visibility="hidden"></rect></g></svg></g></svg>